<svg width="30" height="30" viewBox="0 0 30 30" fill="none" xmlns="http://www.w3.org/2000/svg">
<path d="M15 26.25C8.78663 26.25 3.75 21.2134 3.75 15C3.75 8.78663 8.78663 3.75 15 3.75C21.2134 3.75 26.25 8.78663 26.25 15C26.25 21.2134 21.2134 26.25 15 26.25ZM15 24C17.3869 24 19.6761 23.0518 21.364 21.364C23.0518 19.6761 24 17.3869 24 15C24 12.6131 23.0518 10.3239 21.364 8.63604C19.6761 6.94821 17.3869 6 15 6C12.6131 6 10.3239 6.94821 8.63604 8.63604C6.94821 10.3239 6 12.6131 6 15C6 17.3869 6.94821 19.6761 8.63604 21.364C10.3239 23.0518 12.6131 24 15 24ZM15 13.4093L18.1815 10.2266L19.7734 11.8185L16.5907 15L19.7734 18.1815L18.1815 19.7734L15 16.5907L11.8185 19.7734L10.2266 18.1815L13.4093 15L10.2266 11.8185L11.8185 10.2266L15 13.4093Z" fill="#FFFFFF"/>
</svg>
