<svg width="32" height="32" viewBox="0 0 32 32" fill="none" xmlns="http://www.w3.org/2000/svg">
<path d="M18.5921 0L29.0647 10.6662V28.2662C29.0647 30.3286 27.4241 32 25.3993 32H6.54841C4.52361 32 2.88281 30.3272 2.88281 28.2662V3.73376C2.88297 1.67136 4.52377 0 6.54857 0H18.5921Z" fill="#36D2AD"/>
<path d="M29.0644 10.6662H22.442C20.4187 10.6662 18.5918 8.8072 18.5918 6.74464V0L29.0644 10.6662Z" fill="white" fill-opacity="0.4"/>
<path d="M21.1465 13.292H10.6736C10.3536 13.292 10.0918 13.5568 10.0918 13.884V23.3662C10.0918 23.6934 10.3536 23.9582 10.6736 23.9582H21.1464C21.4678 23.9582 21.7281 23.6934 21.7281 23.3662V13.884C21.7293 13.7284 21.6687 13.5787 21.5596 13.4677C21.4506 13.3568 21.3019 13.2936 21.1464 13.292H21.1465ZM19.9828 22.1794H11.8374V19.2178L13.583 17.4405L16.492 20.4034L18.2376 18.6245L19.9828 20.4034V22.1808V22.1792V22.1794ZM18.8192 17.4405C18.6649 17.4391 18.5124 17.4074 18.3704 17.3471C18.2284 17.2867 18.0997 17.199 17.9916 17.0889C17.8835 16.9788 17.7982 16.8484 17.7406 16.7053C17.6829 16.5622 17.6541 16.4091 17.6556 16.2549C17.6556 15.6005 18.1763 15.0694 18.8192 15.0694C19.4622 15.0694 19.9828 15.6005 19.9828 16.255C19.9828 16.9094 19.4622 17.4405 18.8192 17.4405Z" fill="white"/>
</svg>
